<svg xmlns="http://www.w3.org/2000/svg" version="1.1" xmlns:xlink="http://www.w3.org/1999/xlink" xmlns:svgjs="http://svgjs.com/svgjs" width="1280" height="400" preserveAspectRatio="none" viewBox="0 0 1280 400"><g mask="url(&quot;#SvgjsMask1046&quot;)" fill="none"><rect width="1280" height="400" x="0" y="0" fill="rgba(13, 14, 61, 1)"></rect><path d="M-91.61 360.37L-91.61 360.37" stroke="rgba(36, 92, 206, 1)" stroke-width="1.5"></path><path d="M-91.61 360.37L71.76 351.2" stroke="rgba(36, 92, 206, 1)" stroke-width="1.5"></path><path d="M-86.97 538.99L-86.97 538.99" stroke="rgba(36, 92, 206, 1)" stroke-width="1.5"></path><path d="M-86.97 538.99L82.55 561.9" stroke="rgba(36, 92, 206, 1)" stroke-width="1.5"></path><path d="M-86.97 538.99L-91.61 360.37" stroke="rgba(36, 92, 206, 1)" stroke-width="1.5"></path><path d="M-86.97 538.99L71.76 351.2" stroke="rgba(36, 92, 206, 1)" stroke-width="1.5"></path><path d="M91.56 255.36L91.56 255.36" stroke="rgba(36, 92, 206, 1)" stroke-width="1.5"></path><path d="M91.56 255.36L71.76 351.2" stroke="rgba(36, 92, 206, 1)" stroke-width="1.5"></path><path d="M91.56 255.36L219.85 393.49" stroke="rgba(36, 92, 206, 1)" stroke-width="1.5"></path><path d="M71.76 351.2L71.76 351.2" stroke="rgba(36, 92, 206, 1)" stroke-width="1.5"></path><path d="M71.76 351.2L219.85 393.49" stroke="rgba(36, 92, 206, 1)" stroke-width="1.5"></path><path d="M71.76 351.2L82.55 561.9" stroke="rgba(36, 92, 206, 1)" stroke-width="1.5"></path><path d="M82.55 561.9L82.55 561.9" stroke="rgba(36, 92, 206, 1)" stroke-width="1.5"></path><path d="M82.55 561.9L239.85 529.93" stroke="rgba(36, 92, 206, 1)" stroke-width="1.5"></path><path d="M82.55 561.9L219.85 393.49" stroke="rgba(36, 92, 206, 1)" stroke-width="1.5"></path><path d="M82.55 561.9L-91.61 360.37" stroke="rgba(36, 92, 206, 1)" stroke-width="1.5"></path><path d="M219.85 393.49L219.85 393.49" stroke="rgba(36, 92, 206, 1)" stroke-width="1.5"></path><path d="M219.85 393.49L341.14 339.21" stroke="rgba(36, 92, 206, 1)" stroke-width="1.5"></path><path d="M219.85 393.49L239.85 529.93" stroke="rgba(36, 92, 206, 1)" stroke-width="1.5"></path><path d="M219.85 393.49L377.26 514.03" stroke="rgba(36, 92, 206, 1)" stroke-width="1.5"></path><path d="M239.85 529.93L239.85 529.93" stroke="rgba(36, 92, 206, 1)" stroke-width="1.5"></path><path d="M239.85 529.93L377.26 514.03" stroke="rgba(36, 92, 206, 1)" stroke-width="1.5"></path><path d="M239.85 529.93L341.14 339.21" stroke="rgba(36, 92, 206, 1)" stroke-width="1.5"></path><path d="M239.85 529.93L71.76 351.2" stroke="rgba(36, 92, 206, 1)" stroke-width="1.5"></path><path d="M239.85 529.93L523.59 505.88" stroke="rgba(36, 92, 206, 1)" stroke-width="1.5"></path><path d="M341.14 339.21L341.14 339.21" stroke="rgba(36, 92, 206, 1)" stroke-width="1.5"></path><path d="M341.14 339.21L497.84 407.7" stroke="rgba(36, 92, 206, 1)" stroke-width="1.5"></path><path d="M341.14 339.21L377.26 514.03" stroke="rgba(36, 92, 206, 1)" stroke-width="1.5"></path><path d="M341.14 339.21L511.99 203.04" stroke="rgba(36, 92, 206, 1)" stroke-width="1.5"></path><path d="M377.26 514.03L377.26 514.03" stroke="rgba(36, 92, 206, 1)" stroke-width="1.5"></path><path d="M377.26 514.03L523.59 505.88" stroke="rgba(36, 92, 206, 1)" stroke-width="1.5"></path><path d="M377.26 514.03L497.84 407.7" stroke="rgba(36, 92, 206, 1)" stroke-width="1.5"></path><path d="M511.99 203.04L511.99 203.04" stroke="rgba(36, 92, 206, 1)" stroke-width="1.5"></path><path d="M511.99 203.04L663.36 260.86" stroke="rgba(36, 92, 206, 1)" stroke-width="1.5"></path><path d="M511.99 203.04L497.84 407.7" stroke="rgba(36, 92, 206, 1)" stroke-width="1.5"></path><path d="M511.99 203.04L637.99 377.58" stroke="rgba(36, 92, 206, 1)" stroke-width="1.5"></path><path d="M497.84 407.7L497.84 407.7" stroke="rgba(36, 92, 206, 1)" stroke-width="1.5"></path><path d="M497.84 407.7L523.59 505.88" stroke="rgba(36, 92, 206, 1)" stroke-width="1.5"></path><path d="M497.84 407.7L637.99 377.58" stroke="rgba(36, 92, 206, 1)" stroke-width="1.5"></path><path d="M497.84 407.7L673.23 492.66" stroke="rgba(36, 92, 206, 1)" stroke-width="1.5"></path><path d="M523.59 505.88L523.59 505.88" stroke="rgba(36, 92, 206, 1)" stroke-width="1.5"></path><path d="M523.59 505.88L673.23 492.66" stroke="rgba(36, 92, 206, 1)" stroke-width="1.5"></path><path d="M523.59 505.88L637.99 377.58" stroke="rgba(36, 92, 206, 1)" stroke-width="1.5"></path><path d="M523.59 505.88L341.14 339.21" stroke="rgba(36, 92, 206, 1)" stroke-width="1.5"></path><path d="M663.36 260.86L663.36 260.86" stroke="rgba(36, 92, 206, 1)" stroke-width="1.5"></path><path d="M663.36 260.86L637.99 377.58" stroke="rgba(36, 92, 206, 1)" stroke-width="1.5"></path><path d="M663.36 260.86L849.38 208.89" stroke="rgba(36, 92, 206, 1)" stroke-width="1.5"></path><path d="M663.36 260.86L819.56 402.3" stroke="rgba(36, 92, 206, 1)" stroke-width="1.5"></path><path d="M637.99 377.58L637.99 377.58" stroke="rgba(36, 92, 206, 1)" stroke-width="1.5"></path><path d="M637.99 377.58L673.23 492.66" stroke="rgba(36, 92, 206, 1)" stroke-width="1.5"></path><path d="M637.99 377.58L819.56 402.3" stroke="rgba(36, 92, 206, 1)" stroke-width="1.5"></path><path d="M673.23 492.66L673.23 492.66" stroke="rgba(36, 92, 206, 1)" stroke-width="1.5"></path><path d="M673.23 492.66L838.5 501.33" stroke="rgba(36, 92, 206, 1)" stroke-width="1.5"></path><path d="M673.23 492.66L819.56 402.3" stroke="rgba(36, 92, 206, 1)" stroke-width="1.5"></path><path d="M673.23 492.66L663.36 260.86" stroke="rgba(36, 92, 206, 1)" stroke-width="1.5"></path><path d="M803.85 -74.68L803.85 -74.68" stroke="rgba(36, 92, 206, 1)" stroke-width="1.5"></path><path d="M803.85 -74.68L800.4 75" stroke="rgba(36, 92, 206, 1)" stroke-width="1.5"></path><path d="M803.85 -74.68L959.1 -59.88" stroke="rgba(36, 92, 206, 1)" stroke-width="1.5"></path><path d="M803.85 -74.68L849.38 208.89" stroke="rgba(36, 92, 206, 1)" stroke-width="1.5"></path><path d="M803.85 -74.68L1117.79 65.22" stroke="rgba(36, 92, 206, 1)" stroke-width="1.5"></path><path d="M803.85 -74.68L987.62 231.18" stroke="rgba(36, 92, 206, 1)" stroke-width="1.5"></path><path d="M803.85 -74.68L1160.07 -40.01" stroke="rgba(36, 92, 206, 1)" stroke-width="1.5"></path><path d="M800.4 75L800.4 75" stroke="rgba(36, 92, 206, 1)" stroke-width="1.5"></path><path d="M800.4 75L849.38 208.89" stroke="rgba(36, 92, 206, 1)" stroke-width="1.5"></path><path d="M800.4 75L959.1 -59.88" stroke="rgba(36, 92, 206, 1)" stroke-width="1.5"></path><path d="M800.4 75L663.36 260.86" stroke="rgba(36, 92, 206, 1)" stroke-width="1.5"></path><path d="M800.4 75L987.62 231.18" stroke="rgba(36, 92, 206, 1)" stroke-width="1.5"></path><path d="M849.38 208.89L849.38 208.89" stroke="rgba(36, 92, 206, 1)" stroke-width="1.5"></path><path d="M849.38 208.89L987.62 231.18" stroke="rgba(36, 92, 206, 1)" stroke-width="1.5"></path><path d="M849.38 208.89L819.56 402.3" stroke="rgba(36, 92, 206, 1)" stroke-width="1.5"></path><path d="M849.38 208.89L992.96 346.24" stroke="rgba(36, 92, 206, 1)" stroke-width="1.5"></path><path d="M849.38 208.89L637.99 377.58" stroke="rgba(36, 92, 206, 1)" stroke-width="1.5"></path><path d="M819.56 402.3L819.56 402.3" stroke="rgba(36, 92, 206, 1)" stroke-width="1.5"></path><path d="M819.56 402.3L838.5 501.33" stroke="rgba(36, 92, 206, 1)" stroke-width="1.5"></path><path d="M819.56 402.3L992.96 346.24" stroke="rgba(36, 92, 206, 1)" stroke-width="1.5"></path><path d="M838.5 501.33L838.5 501.33" stroke="rgba(36, 92, 206, 1)" stroke-width="1.5"></path><path d="M838.5 501.33L947.25 555.94" stroke="rgba(36, 92, 206, 1)" stroke-width="1.5"></path><path d="M959.1 -59.88L959.1 -59.88" stroke="rgba(36, 92, 206, 1)" stroke-width="1.5"></path><path d="M959.1 -59.88L1160.07 -40.01" stroke="rgba(36, 92, 206, 1)" stroke-width="1.5"></path><path d="M959.1 -59.88L1117.79 65.22" stroke="rgba(36, 92, 206, 1)" stroke-width="1.5"></path><path d="M987.62 231.18L987.62 231.18" stroke="rgba(36, 92, 206, 1)" stroke-width="1.5"></path><path d="M987.62 231.18L992.96 346.24" stroke="rgba(36, 92, 206, 1)" stroke-width="1.5"></path><path d="M987.62 231.18L1132.02 249.85" stroke="rgba(36, 92, 206, 1)" stroke-width="1.5"></path><path d="M987.62 231.18L1132.13 357.41" stroke="rgba(36, 92, 206, 1)" stroke-width="1.5"></path><path d="M987.62 231.18L1117.79 65.22" stroke="rgba(36, 92, 206, 1)" stroke-width="1.5"></path><path d="M987.62 231.18L819.56 402.3" stroke="rgba(36, 92, 206, 1)" stroke-width="1.5"></path><path d="M992.96 346.24L992.96 346.24" stroke="rgba(36, 92, 206, 1)" stroke-width="1.5"></path><path d="M992.96 346.24L1132.13 357.41" stroke="rgba(36, 92, 206, 1)" stroke-width="1.5"></path><path d="M992.96 346.24L1132.02 249.85" stroke="rgba(36, 92, 206, 1)" stroke-width="1.5"></path><path d="M992.96 346.24L1097.83 493.57" stroke="rgba(36, 92, 206, 1)" stroke-width="1.5"></path><path d="M947.25 555.94L947.25 555.94" stroke="rgba(36, 92, 206, 1)" stroke-width="1.5"></path><path d="M947.25 555.94L1097.83 493.57" stroke="rgba(36, 92, 206, 1)" stroke-width="1.5"></path><path d="M947.25 555.94L819.56 402.3" stroke="rgba(36, 92, 206, 1)" stroke-width="1.5"></path><path d="M947.25 555.94L992.96 346.24" stroke="rgba(36, 92, 206, 1)" stroke-width="1.5"></path><path d="M1160.07 -40.01L1160.07 -40.01" stroke="rgba(36, 92, 206, 1)" stroke-width="1.5"></path><path d="M1160.07 -40.01L1117.79 65.22" stroke="rgba(36, 92, 206, 1)" stroke-width="1.5"></path><path d="M1160.07 -40.01L1271.32 -69.46" stroke="rgba(36, 92, 206, 1)" stroke-width="1.5"></path><path d="M1160.07 -40.01L1254.31 67.89" stroke="rgba(36, 92, 206, 1)" stroke-width="1.5"></path><path d="M1160.07 -40.01L1132.02 249.85" stroke="rgba(36, 92, 206, 1)" stroke-width="1.5"></path><path d="M1117.79 65.22L1117.79 65.22" stroke="rgba(36, 92, 206, 1)" stroke-width="1.5"></path><path d="M1117.79 65.22L1254.31 67.89" stroke="rgba(36, 92, 206, 1)" stroke-width="1.5"></path><path d="M1132.02 249.85L1132.02 249.85" stroke="rgba(36, 92, 206, 1)" stroke-width="1.5"></path><path d="M1132.02 249.85L1132.13 357.41" stroke="rgba(36, 92, 206, 1)" stroke-width="1.5"></path><path d="M1132.13 357.41L1132.13 357.41" stroke="rgba(36, 92, 206, 1)" stroke-width="1.5"></path><path d="M1132.13 357.41L1097.83 493.57" stroke="rgba(36, 92, 206, 1)" stroke-width="1.5"></path><path d="M1132.13 357.41L1300.96 390.85" stroke="rgba(36, 92, 206, 1)" stroke-width="1.5"></path><path d="M1097.83 493.57L1097.83 493.57" stroke="rgba(36, 92, 206, 1)" stroke-width="1.5"></path><path d="M1271.32 -69.46L1271.32 -69.46" stroke="rgba(36, 92, 206, 1)" stroke-width="1.5"></path><path d="M1271.32 -69.46L1254.31 67.89" stroke="rgba(36, 92, 206, 1)" stroke-width="1.5"></path><path d="M1271.32 -69.46L1448.76 -102.38" stroke="rgba(36, 92, 206, 1)" stroke-width="1.5"></path><path d="M1271.32 -69.46L1117.79 65.22" stroke="rgba(36, 92, 206, 1)" stroke-width="1.5"></path><path d="M1271.32 -69.46L1429.48 112.06" stroke="rgba(36, 92, 206, 1)" stroke-width="1.5"></path><path d="M1271.32 -69.46L1399.95 192.92" stroke="rgba(36, 92, 206, 1)" stroke-width="1.5"></path><path d="M1254.31 67.89L1254.31 67.89" stroke="rgba(36, 92, 206, 1)" stroke-width="1.5"></path><path d="M1296.48 245.27L1296.48 245.27" stroke="rgba(36, 92, 206, 1)" stroke-width="1.5"></path><path d="M1296.48 245.27L1399.95 192.92" stroke="rgba(36, 92, 206, 1)" stroke-width="1.5"></path><path d="M1296.48 245.27L1300.96 390.85" stroke="rgba(36, 92, 206, 1)" stroke-width="1.5"></path><path d="M1296.48 245.27L1132.02 249.85" stroke="rgba(36, 92, 206, 1)" stroke-width="1.5"></path><path d="M1296.48 245.27L1254.31 67.89" stroke="rgba(36, 92, 206, 1)" stroke-width="1.5"></path><path d="M1296.48 245.27L1429.48 112.06" stroke="rgba(36, 92, 206, 1)" stroke-width="1.5"></path><path d="M1300.96 390.85L1300.96 390.85" stroke="rgba(36, 92, 206, 1)" stroke-width="1.5"></path><path d="M1300.96 390.85L1435.46 389.32" stroke="rgba(36, 92, 206, 1)" stroke-width="1.5"></path><path d="M1300.96 390.85L1401.44 493.96" stroke="rgba(36, 92, 206, 1)" stroke-width="1.5"></path><path d="M1300.96 390.85L1259.55 553.73" stroke="rgba(36, 92, 206, 1)" stroke-width="1.5"></path><path d="M1259.55 553.73L1259.55 553.73" stroke="rgba(36, 92, 206, 1)" stroke-width="1.5"></path><path d="M1259.55 553.73L1401.44 493.96" stroke="rgba(36, 92, 206, 1)" stroke-width="1.5"></path><path d="M1259.55 553.73L1097.83 493.57" stroke="rgba(36, 92, 206, 1)" stroke-width="1.5"></path><path d="M1259.55 553.73L1132.13 357.41" stroke="rgba(36, 92, 206, 1)" stroke-width="1.5"></path><path d="M1259.55 553.73L1435.46 389.32" stroke="rgba(36, 92, 206, 1)" stroke-width="1.5"></path><path d="M1448.76 -102.38L1448.76 -102.38" stroke="rgba(36, 92, 206, 1)" stroke-width="1.5"></path><path d="M1448.76 -102.38L1429.48 112.06" stroke="rgba(36, 92, 206, 1)" stroke-width="1.5"></path><path d="M1448.76 -102.38L1254.31 67.89" stroke="rgba(36, 92, 206, 1)" stroke-width="1.5"></path><path d="M1448.76 -102.38L1160.07 -40.01" stroke="rgba(36, 92, 206, 1)" stroke-width="1.5"></path><path d="M1429.48 112.06L1429.48 112.06" stroke="rgba(36, 92, 206, 1)" stroke-width="1.5"></path><path d="M1429.48 112.06L1399.95 192.92" stroke="rgba(36, 92, 206, 1)" stroke-width="1.5"></path><path d="M1429.48 112.06L1254.31 67.89" stroke="rgba(36, 92, 206, 1)" stroke-width="1.5"></path><path d="M1399.95 192.92L1399.95 192.92" stroke="rgba(36, 92, 206, 1)" stroke-width="1.5"></path><path d="M1399.95 192.92L1254.31 67.89" stroke="rgba(36, 92, 206, 1)" stroke-width="1.5"></path><path d="M1435.46 389.32L1435.46 389.32" stroke="rgba(36, 92, 206, 1)" stroke-width="1.5"></path><path d="M1435.46 389.32L1401.44 493.96" stroke="rgba(36, 92, 206, 1)" stroke-width="1.5"></path><path d="M1401.44 493.96L1401.44 493.96" stroke="rgba(36, 92, 206, 1)" stroke-width="1.5"></path><path d="M1401.44 493.96L1296.48 245.27" stroke="rgba(36, 92, 206, 1)" stroke-width="1.5"></path><path d="M1401.44 493.96L1399.95 192.92" stroke="rgba(36, 92, 206, 1)" stroke-width="1.5"></path><path d="M1401.44 493.96L1132.13 357.41" stroke="rgba(36, 92, 206, 1)" stroke-width="1.5"></path><circle r="5" cx="-91.61" cy="360.37" fill="rgba(36, 92, 206, 1)"></circle><circle r="5" cx="-86.97" cy="538.99" fill="rgba(36, 92, 206, 1)"></circle><circle r="5" cx="91.56" cy="255.36" fill="rgba(36, 92, 206, 1)"></circle><circle r="5" cx="71.76" cy="351.2" fill="rgba(36, 92, 206, 1)"></circle><circle r="5" cx="82.55" cy="561.9" fill="rgba(36, 92, 206, 1)"></circle><circle r="5" cx="219.85" cy="393.49" fill="rgba(36, 92, 206, 1)"></circle><circle r="5" cx="239.85" cy="529.93" fill="rgba(36, 92, 206, 1)"></circle><circle r="5" cx="341.14" cy="339.21" fill="rgba(36, 92, 206, 1)"></circle><circle r="5" cx="377.26" cy="514.03" fill="rgba(36, 92, 206, 1)"></circle><circle r="5" cx="511.99" cy="203.04" fill="rgba(36, 92, 206, 1)"></circle><circle r="5" cx="497.84" cy="407.7" fill="rgba(36, 92, 206, 1)"></circle><circle r="5" cx="523.59" cy="505.88" fill="rgba(36, 92, 206, 1)"></circle><circle r="5" cx="663.36" cy="260.86" fill="rgba(36, 92, 206, 1)"></circle><circle r="5" cx="637.99" cy="377.58" fill="rgba(36, 92, 206, 1)"></circle><circle r="5" cx="673.23" cy="492.66" fill="rgba(36, 92, 206, 1)"></circle><circle r="5" cx="803.85" cy="-74.68" fill="rgba(36, 92, 206, 1)"></circle><circle r="5" cx="800.4" cy="75" fill="rgba(36, 92, 206, 1)"></circle><circle r="5" cx="849.38" cy="208.89" fill="rgba(36, 92, 206, 1)"></circle><circle r="5" cx="819.56" cy="402.3" fill="rgba(36, 92, 206, 1)"></circle><circle r="5" cx="838.5" cy="501.33" fill="rgba(36, 92, 206, 1)"></circle><circle r="5" cx="959.1" cy="-59.88" fill="rgba(36, 92, 206, 1)"></circle><circle r="5" cx="987.62" cy="231.18" fill="rgba(36, 92, 206, 1)"></circle><circle r="5" cx="992.96" cy="346.24" fill="rgba(36, 92, 206, 1)"></circle><circle r="5" cx="947.25" cy="555.94" fill="rgba(36, 92, 206, 1)"></circle><circle r="5" cx="1160.07" cy="-40.01" fill="rgba(36, 92, 206, 1)"></circle><circle r="5" cx="1117.79" cy="65.22" fill="rgba(36, 92, 206, 1)"></circle><circle r="5" cx="1132.02" cy="249.85" fill="rgba(36, 92, 206, 1)"></circle><circle r="5" cx="1132.13" cy="357.41" fill="rgba(36, 92, 206, 1)"></circle><circle r="5" cx="1097.83" cy="493.57" fill="rgba(36, 92, 206, 1)"></circle><circle r="5" cx="1271.32" cy="-69.46" fill="rgba(36, 92, 206, 1)"></circle><circle r="5" cx="1254.31" cy="67.89" fill="rgba(36, 92, 206, 1)"></circle><circle r="5" cx="1296.48" cy="245.27" fill="rgba(36, 92, 206, 1)"></circle><circle r="5" cx="1300.96" cy="390.85" fill="rgba(36, 92, 206, 1)"></circle><circle r="5" cx="1259.55" cy="553.73" fill="rgba(36, 92, 206, 1)"></circle><circle r="5" cx="1448.76" cy="-102.38" fill="rgba(36, 92, 206, 1)"></circle><circle r="5" cx="1429.48" cy="112.06" fill="rgba(36, 92, 206, 1)"></circle><circle r="5" cx="1399.95" cy="192.92" fill="rgba(36, 92, 206, 1)"></circle><circle r="5" cx="1435.46" cy="389.32" fill="rgba(36, 92, 206, 1)"></circle><circle r="5" cx="1401.44" cy="493.96" fill="rgba(36, 92, 206, 1)"></circle><path d="M388.53 506.16L388.53 506.16" stroke="hsl(228.5, 77.2%, 51.5%)" stroke-width="1.5"></path><path d="M388.53 506.16L364.02 366.85" stroke="hsl(228.5, 77.2%, 51.5%)" stroke-width="1.5"></path><path d="M388.53 506.16L243.36 518.27" stroke="hsl(228.5, 77.2%, 51.5%)" stroke-width="1.5"></path><path d="M546.29 385.81L546.29 385.81" stroke="hsl(228.5, 77.2%, 51.5%)" stroke-width="1.5"></path><path d="M546.29 385.81L646.24 382.98" stroke="hsl(228.5, 77.2%, 51.5%)" stroke-width="1.5"></path><path d="M546.29 385.81L556.41 522.37" stroke="hsl(228.5, 77.2%, 51.5%)" stroke-width="1.5"></path><path d="M546.29 385.81L364.02 366.85" stroke="hsl(228.5, 77.2%, 51.5%)" stroke-width="1.5"></path><path d="M546.29 385.81L388.53 506.16" stroke="hsl(228.5, 77.2%, 51.5%)" stroke-width="1.5"></path><path d="M546.29 385.81L656.36 555.56" stroke="hsl(228.5, 77.2%, 51.5%)" stroke-width="1.5"></path><path d="M546.29 385.81L846.77 395.13" stroke="hsl(228.5, 77.2%, 51.5%)" stroke-width="1.5"></path><path d="M556.41 522.37L556.41 522.37" stroke="hsl(228.5, 77.2%, 51.5%)" stroke-width="1.5"></path><path d="M556.41 522.37L656.36 555.56" stroke="hsl(228.5, 77.2%, 51.5%)" stroke-width="1.5"></path><path d="M556.41 522.37L646.24 382.98" stroke="hsl(228.5, 77.2%, 51.5%)" stroke-width="1.5"></path><path d="M556.41 522.37L388.53 506.16" stroke="hsl(228.5, 77.2%, 51.5%)" stroke-width="1.5"></path><path d="M556.41 522.37L364.02 366.85" stroke="hsl(228.5, 77.2%, 51.5%)" stroke-width="1.5"></path><path d="M556.41 522.37L826.22 504.93" stroke="hsl(228.5, 77.2%, 51.5%)" stroke-width="1.5"></path><path d="M846.77 395.13L846.77 395.13" stroke="hsl(228.5, 77.2%, 51.5%)" stroke-width="1.5"></path><path d="M846.77 395.13L826.22 504.93" stroke="hsl(228.5, 77.2%, 51.5%)" stroke-width="1.5"></path><path d="M846.77 395.13L1007.66 345.64" stroke="hsl(228.5, 77.2%, 51.5%)" stroke-width="1.5"></path><path d="M846.77 395.13L825.98 198.57" stroke="hsl(228.5, 77.2%, 51.5%)" stroke-width="1.5"></path><path d="M846.77 395.13L646.24 382.98" stroke="hsl(228.5, 77.2%, 51.5%)" stroke-width="1.5"></path><path d="M846.77 395.13L988.6 557.3" stroke="hsl(228.5, 77.2%, 51.5%)" stroke-width="1.5"></path><path d="M846.77 395.13L976.85 205.82" stroke="hsl(228.5, 77.2%, 51.5%)" stroke-width="1.5"></path><path d="M1093.15 99.96L1093.15 99.96" stroke="hsl(228.5, 77.2%, 51.5%)" stroke-width="1.5"></path><path d="M1093.15 99.96L1116.32 218.88" stroke="hsl(228.5, 77.2%, 51.5%)" stroke-width="1.5"></path><path d="M1093.15 99.96L976.85 205.82" stroke="hsl(228.5, 77.2%, 51.5%)" stroke-width="1.5"></path><path d="M1093.15 99.96L1136.02 -93.24" stroke="hsl(228.5, 77.2%, 51.5%)" stroke-width="1.5"></path><path d="M1093.15 99.96L1288.97 57.77" stroke="hsl(228.5, 77.2%, 51.5%)" stroke-width="1.5"></path><path d="M1093.15 99.96L1272.04 247.69" stroke="hsl(228.5, 77.2%, 51.5%)" stroke-width="1.5"></path><path d="M1093.15 99.96L1007.66 345.64" stroke="hsl(228.5, 77.2%, 51.5%)" stroke-width="1.5"></path><path d="M1388.25 50.01L1388.25 50.01" stroke="hsl(228.5, 77.2%, 51.5%)" stroke-width="1.5"></path><path d="M1388.25 50.01L1288.97 57.77" stroke="hsl(228.5, 77.2%, 51.5%)" stroke-width="1.5"></path><path d="M1388.25 50.01L1312.06 -69.33" stroke="hsl(228.5, 77.2%, 51.5%)" stroke-width="1.5"></path><path d="M1388.25 50.01L1430.59 189.02" stroke="hsl(228.5, 77.2%, 51.5%)" stroke-width="1.5"></path><path d="M1388.25 50.01L1404.55 -102.91" stroke="hsl(228.5, 77.2%, 51.5%)" stroke-width="1.5"></path><path d="M1388.25 50.01L1272.04 247.69" stroke="hsl(228.5, 77.2%, 51.5%)" stroke-width="1.5"></path><path d="M1388.25 50.01L1136.02 -93.24" stroke="hsl(228.5, 77.2%, 51.5%)" stroke-width="1.5"></path><path d="M-91.73 387.36L-91.73 387.36" stroke="hsl(228.5, 77.2%, 51.5%)" stroke-width="1.5"></path><path d="M-91.73 387.36L-80.05 519.58" stroke="hsl(228.5, 77.2%, 51.5%)" stroke-width="1.5"></path><path d="M-91.73 387.36L57.95 383.56" stroke="hsl(228.5, 77.2%, 51.5%)" stroke-width="1.5"></path><path d="M-91.73 387.36L41.63 547.63" stroke="hsl(228.5, 77.2%, 51.5%)" stroke-width="1.5"></path><path d="M-91.73 387.36L242.75 348.89" stroke="hsl(228.5, 77.2%, 51.5%)" stroke-width="1.5"></path><path d="M-80.05 519.58L-80.05 519.58" stroke="hsl(228.5, 77.2%, 51.5%)" stroke-width="1.5"></path><path d="M-80.05 519.58L41.63 547.63" stroke="hsl(228.5, 77.2%, 51.5%)" stroke-width="1.5"></path><path d="M-80.05 519.58L57.95 383.56" stroke="hsl(228.5, 77.2%, 51.5%)" stroke-width="1.5"></path><path d="M-80.05 519.58L243.36 518.27" stroke="hsl(228.5, 77.2%, 51.5%)" stroke-width="1.5"></path><path d="M57.95 383.56L57.95 383.56" stroke="hsl(228.5, 77.2%, 51.5%)" stroke-width="1.5"></path><path d="M57.95 383.56L41.63 547.63" stroke="hsl(228.5, 77.2%, 51.5%)" stroke-width="1.5"></path><path d="M57.95 383.56L242.75 348.89" stroke="hsl(228.5, 77.2%, 51.5%)" stroke-width="1.5"></path><path d="M41.63 547.63L41.63 547.63" stroke="hsl(228.5, 77.2%, 51.5%)" stroke-width="1.5"></path><path d="M41.63 547.63L243.36 518.27" stroke="hsl(228.5, 77.2%, 51.5%)" stroke-width="1.5"></path><path d="M242.75 348.89L242.75 348.89" stroke="hsl(228.5, 77.2%, 51.5%)" stroke-width="1.5"></path><path d="M242.75 348.89L364.02 366.85" stroke="hsl(228.5, 77.2%, 51.5%)" stroke-width="1.5"></path><path d="M242.75 348.89L243.36 518.27" stroke="hsl(228.5, 77.2%, 51.5%)" stroke-width="1.5"></path><path d="M242.75 348.89L388.53 506.16" stroke="hsl(228.5, 77.2%, 51.5%)" stroke-width="1.5"></path><path d="M242.75 348.89L41.63 547.63" stroke="hsl(228.5, 77.2%, 51.5%)" stroke-width="1.5"></path><path d="M242.75 348.89L546.29 385.81" stroke="hsl(228.5, 77.2%, 51.5%)" stroke-width="1.5"></path><path d="M243.36 518.27L243.36 518.27" stroke="hsl(228.5, 77.2%, 51.5%)" stroke-width="1.5"></path><path d="M243.36 518.27L364.02 366.85" stroke="hsl(228.5, 77.2%, 51.5%)" stroke-width="1.5"></path><path d="M243.36 518.27L57.95 383.56" stroke="hsl(228.5, 77.2%, 51.5%)" stroke-width="1.5"></path><path d="M364.02 366.85L364.02 366.85" stroke="hsl(228.5, 77.2%, 51.5%)" stroke-width="1.5"></path><path d="M646.24 382.98L646.24 382.98" stroke="hsl(228.5, 77.2%, 51.5%)" stroke-width="1.5"></path><path d="M646.24 382.98L656.36 555.56" stroke="hsl(228.5, 77.2%, 51.5%)" stroke-width="1.5"></path><path d="M646.24 382.98L826.22 504.93" stroke="hsl(228.5, 77.2%, 51.5%)" stroke-width="1.5"></path><path d="M646.24 382.98L825.98 198.57" stroke="hsl(228.5, 77.2%, 51.5%)" stroke-width="1.5"></path><path d="M656.36 555.56L656.36 555.56" stroke="hsl(228.5, 77.2%, 51.5%)" stroke-width="1.5"></path><path d="M656.36 555.56L826.22 504.93" stroke="hsl(228.5, 77.2%, 51.5%)" stroke-width="1.5"></path><path d="M656.36 555.56L846.77 395.13" stroke="hsl(228.5, 77.2%, 51.5%)" stroke-width="1.5"></path><path d="M825.98 198.57L825.98 198.57" stroke="hsl(228.5, 77.2%, 51.5%)" stroke-width="1.5"></path><path d="M825.98 198.57L976.85 205.82" stroke="hsl(228.5, 77.2%, 51.5%)" stroke-width="1.5"></path><path d="M825.98 198.57L1007.66 345.64" stroke="hsl(228.5, 77.2%, 51.5%)" stroke-width="1.5"></path><path d="M825.98 198.57L1093.15 99.96" stroke="hsl(228.5, 77.2%, 51.5%)" stroke-width="1.5"></path><path d="M826.22 504.93L826.22 504.93" stroke="hsl(228.5, 77.2%, 51.5%)" stroke-width="1.5"></path><path d="M826.22 504.93L988.6 557.3" stroke="hsl(228.5, 77.2%, 51.5%)" stroke-width="1.5"></path><path d="M976.85 205.82L976.85 205.82" stroke="hsl(228.5, 77.2%, 51.5%)" stroke-width="1.5"></path><path d="M976.85 205.82L1116.32 218.88" stroke="hsl(228.5, 77.2%, 51.5%)" stroke-width="1.5"></path><path d="M976.85 205.82L1007.66 345.64" stroke="hsl(228.5, 77.2%, 51.5%)" stroke-width="1.5"></path><path d="M1007.66 345.64L1007.66 345.64" stroke="hsl(228.5, 77.2%, 51.5%)" stroke-width="1.5"></path><path d="M1007.66 345.64L1161.9 372.82" stroke="hsl(228.5, 77.2%, 51.5%)" stroke-width="1.5"></path><path d="M1007.66 345.64L1116.32 218.88" stroke="hsl(228.5, 77.2%, 51.5%)" stroke-width="1.5"></path><path d="M988.6 557.3L988.6 557.3" stroke="hsl(228.5, 77.2%, 51.5%)" stroke-width="1.5"></path><path d="M988.6 557.3L1089.75 558.48" stroke="hsl(228.5, 77.2%, 51.5%)" stroke-width="1.5"></path><path d="M1136.02 -93.24L1136.02 -93.24" stroke="hsl(228.5, 77.2%, 51.5%)" stroke-width="1.5"></path><path d="M1136.02 -93.24L1312.06 -69.33" stroke="hsl(228.5, 77.2%, 51.5%)" stroke-width="1.5"></path><path d="M1136.02 -93.24L1288.97 57.77" stroke="hsl(228.5, 77.2%, 51.5%)" stroke-width="1.5"></path><path d="M1136.02 -93.24L1404.55 -102.91" stroke="hsl(228.5, 77.2%, 51.5%)" stroke-width="1.5"></path><path d="M1116.32 218.88L1116.32 218.88" stroke="hsl(228.5, 77.2%, 51.5%)" stroke-width="1.5"></path><path d="M1116.32 218.88L1272.04 247.69" stroke="hsl(228.5, 77.2%, 51.5%)" stroke-width="1.5"></path><path d="M1116.32 218.88L1161.9 372.82" stroke="hsl(228.5, 77.2%, 51.5%)" stroke-width="1.5"></path><path d="M1161.9 372.82L1161.9 372.82" stroke="hsl(228.5, 77.2%, 51.5%)" stroke-width="1.5"></path><path d="M1161.9 372.82L1260.98 354.29" stroke="hsl(228.5, 77.2%, 51.5%)" stroke-width="1.5"></path><path d="M1089.75 558.48L1089.75 558.48" stroke="hsl(228.5, 77.2%, 51.5%)" stroke-width="1.5"></path><path d="M1089.75 558.48L1288.48 559.58" stroke="hsl(228.5, 77.2%, 51.5%)" stroke-width="1.5"></path><path d="M1089.75 558.48L1161.9 372.82" stroke="hsl(228.5, 77.2%, 51.5%)" stroke-width="1.5"></path><path d="M1089.75 558.48L1007.66 345.64" stroke="hsl(228.5, 77.2%, 51.5%)" stroke-width="1.5"></path><path d="M1312.06 -69.33L1312.06 -69.33" stroke="hsl(228.5, 77.2%, 51.5%)" stroke-width="1.5"></path><path d="M1312.06 -69.33L1404.55 -102.91" stroke="hsl(228.5, 77.2%, 51.5%)" stroke-width="1.5"></path><path d="M1312.06 -69.33L1288.97 57.77" stroke="hsl(228.5, 77.2%, 51.5%)" stroke-width="1.5"></path><path d="M1312.06 -69.33L1093.15 99.96" stroke="hsl(228.5, 77.2%, 51.5%)" stroke-width="1.5"></path><path d="M1288.97 57.77L1288.97 57.77" stroke="hsl(228.5, 77.2%, 51.5%)" stroke-width="1.5"></path><path d="M1288.97 57.77L1272.04 247.69" stroke="hsl(228.5, 77.2%, 51.5%)" stroke-width="1.5"></path><path d="M1288.97 57.77L1430.59 189.02" stroke="hsl(228.5, 77.2%, 51.5%)" stroke-width="1.5"></path><path d="M1288.97 57.77L1404.55 -102.91" stroke="hsl(228.5, 77.2%, 51.5%)" stroke-width="1.5"></path><path d="M1272.04 247.69L1272.04 247.69" stroke="hsl(228.5, 77.2%, 51.5%)" stroke-width="1.5"></path><path d="M1272.04 247.69L1260.98 354.29" stroke="hsl(228.5, 77.2%, 51.5%)" stroke-width="1.5"></path><path d="M1272.04 247.69L1161.9 372.82" stroke="hsl(228.5, 77.2%, 51.5%)" stroke-width="1.5"></path><path d="M1272.04 247.69L1430.59 189.02" stroke="hsl(228.5, 77.2%, 51.5%)" stroke-width="1.5"></path><path d="M1272.04 247.69L1440.61 396.14" stroke="hsl(228.5, 77.2%, 51.5%)" stroke-width="1.5"></path><path d="M1260.98 354.29L1260.98 354.29" stroke="hsl(228.5, 77.2%, 51.5%)" stroke-width="1.5"></path><path d="M1260.98 354.29L1440.61 396.14" stroke="hsl(228.5, 77.2%, 51.5%)" stroke-width="1.5"></path><path d="M1260.98 354.29L1116.32 218.88" stroke="hsl(228.5, 77.2%, 51.5%)" stroke-width="1.5"></path><path d="M1260.98 354.29L1288.48 559.58" stroke="hsl(228.5, 77.2%, 51.5%)" stroke-width="1.5"></path><path d="M1288.48 559.58L1288.48 559.58" stroke="hsl(228.5, 77.2%, 51.5%)" stroke-width="1.5"></path><path d="M1288.48 559.58L1409.86 508.27" stroke="hsl(228.5, 77.2%, 51.5%)" stroke-width="1.5"></path><path d="M1288.48 559.58L1440.61 396.14" stroke="hsl(228.5, 77.2%, 51.5%)" stroke-width="1.5"></path><path d="M1404.55 -102.91L1404.55 -102.91" stroke="hsl(228.5, 77.2%, 51.5%)" stroke-width="1.5"></path><path d="M1430.59 189.02L1430.59 189.02" stroke="hsl(228.5, 77.2%, 51.5%)" stroke-width="1.5"></path><path d="M1440.61 396.14L1440.61 396.14" stroke="hsl(228.5, 77.2%, 51.5%)" stroke-width="1.5"></path><path d="M1440.61 396.14L1409.86 508.27" stroke="hsl(228.5, 77.2%, 51.5%)" stroke-width="1.5"></path><path d="M1440.61 396.14L1430.59 189.02" stroke="hsl(228.5, 77.2%, 51.5%)" stroke-width="1.5"></path><path d="M1409.86 508.27L1409.86 508.27" stroke="hsl(228.5, 77.2%, 51.5%)" stroke-width="1.5"></path><path d="M1409.86 508.27L1260.98 354.29" stroke="hsl(228.5, 77.2%, 51.5%)" stroke-width="1.5"></path><path d="M1409.86 508.27L1161.9 372.82" stroke="hsl(228.5, 77.2%, 51.5%)" stroke-width="1.5"></path><path d="M1409.86 508.27L1272.04 247.69" stroke="hsl(228.5, 77.2%, 51.5%)" stroke-width="1.5"></path><circle r="25" cx="388.53" cy="506.16" fill="url(#SvgjsRadialGradient1047)"></circle><circle r="25" cx="546.29" cy="385.81" fill="url(#SvgjsRadialGradient1047)"></circle><circle r="25" cx="556.41" cy="522.37" fill="url(#SvgjsRadialGradient1047)"></circle><circle r="25" cx="846.77" cy="395.13" fill="url(#SvgjsRadialGradient1047)"></circle><circle r="25" cx="1093.15" cy="99.96" fill="url(#SvgjsRadialGradient1047)"></circle><circle r="25" cx="1388.25" cy="50.01" fill="url(#SvgjsRadialGradient1047)"></circle><circle r="5" cx="-91.73" cy="387.36" fill="#8b9ad9"></circle><circle r="5" cx="-80.05" cy="519.58" fill="#8b9ad9"></circle><circle r="5" cx="57.95" cy="383.56" fill="#8b9ad9"></circle><circle r="5" cx="41.63" cy="547.63" fill="#8b9ad9"></circle><circle r="5" cx="242.75" cy="348.89" fill="#8b9ad9"></circle><circle r="5" cx="243.36" cy="518.27" fill="#8b9ad9"></circle><circle r="5" cx="364.02" cy="366.85" fill="#8b9ad9"></circle><circle r="5" cx="646.24" cy="382.98" fill="#8b9ad9"></circle><circle r="5" cx="656.36" cy="555.56" fill="#8b9ad9"></circle><circle r="5" cx="825.98" cy="198.57" fill="#8b9ad9"></circle><circle r="5" cx="826.22" cy="504.93" fill="#8b9ad9"></circle><circle r="5" cx="976.85" cy="205.82" fill="#8b9ad9"></circle><circle r="5" cx="1007.66" cy="345.64" fill="#8b9ad9"></circle><circle r="5" cx="988.6" cy="557.3" fill="#8b9ad9"></circle><circle r="5" cx="1136.02" cy="-93.24" fill="#8b9ad9"></circle><circle r="5" cx="1116.32" cy="218.88" fill="#8b9ad9"></circle><circle r="5" cx="1161.9" cy="372.82" fill="#8b9ad9"></circle><circle r="5" cx="1089.75" cy="558.48" fill="#8b9ad9"></circle><circle r="5" cx="1312.06" cy="-69.33" fill="#8b9ad9"></circle><circle r="5" cx="1288.97" cy="57.77" fill="#8b9ad9"></circle><circle r="5" cx="1272.04" cy="247.69" fill="#8b9ad9"></circle><circle r="5" cx="1260.98" cy="354.29" fill="#8b9ad9"></circle><circle r="5" cx="1288.48" cy="559.58" fill="#8b9ad9"></circle><circle r="5" cx="1404.55" cy="-102.91" fill="#8b9ad9"></circle><circle r="5" cx="1430.59" cy="189.02" fill="#8b9ad9"></circle><circle r="5" cx="1440.61" cy="396.14" fill="#8b9ad9"></circle><circle r="5" cx="1409.86" cy="508.27" fill="#8b9ad9"></circle></g><defs><mask id="SvgjsMask1046"><rect width="1280" height="400" fill="#ffffff"></rect></mask><radialGradient id="SvgjsRadialGradient1047"><stop stop-color="#ffffff" offset="0.1"></stop><stop stop-color="#1735b3" offset="0.2"></stop><stop stop-color="rgba(23, 53, 179, 0)" offset="1"></stop></radialGradient></defs></svg>